M48
METRIC,LZ,000.000
;FILE_FORMAT=3:3
;TYPE=PLATED
;Layer: PTH_Through
;EasyEDA v6.5.22, 2023-04-01 07:59:08
;7fe897ac635649ec9317f66c388b8081,f086b915ab1b43d4b1f8ac0bdbc02707,10
;Gerber Generator version 0.2
;Holesize 1 = 0.800 mm
T01C0.800
;Holesize 2 = 0.889 mm
T02C0.889
;Holesize 3 = 0.901 mm
T03C0.901
;Holesize 4 = 0.915 mm
T04C0.915
;Holesize 5 = 1.083 mm
T05C1.083
;Holesize 6 = 1.101 mm
T06C1.101
;Holesize 7 = 1.200 mm
T07C1.200
%
G05
G90
T01
X-005234Y006350
X-000354Y006350
T02
X012504Y-017145
X009964Y-017145
X007424Y-017145
X004884Y-017145
X002344Y-017145
X-000196Y-017145
X-002736Y-017145
X-005276Y-017145
X-007816Y-017145
X040317Y013589
X037777Y013589
X035237Y013589
X032697Y013589
X030157Y013589
X027617Y013589
X025077Y013589
X022537Y013589
X-007943Y013462
X-005403Y013462
X-002863Y013462
X-000323Y013462
X002217Y013462
X004757Y013462
X007297Y013462
X009837Y013462
X012377Y013462
T03
X021648Y-007847
X021648Y-012727
T04
X-007620Y002921
X-007620Y000381
X-007620Y-002159
X-007620Y-004699
T05
X034622Y-001858
T06
X046609Y008255
X046609Y010795
T07
X037122Y-001858
X034622Y-004358
X037122Y-004358
X034622Y-006858
X037122Y-006858
X034622Y-009358
X037122Y-009358
X034622Y-011858
X037122Y-011858
M30
