G04 Layer: BottomSilkscreenLayer*
G04 EasyEDA v6.5.22, 2023-04-01 07:59:08*
G04 7fe897ac635649ec9317f66c388b8081,f086b915ab1b43d4b1f8ac0bdbc02707,10*
G04 Gerber Generator version 0.2*
G04 Scale: 100 percent, Rotated: No, Reflected: No *
G04 Dimensions in millimeters *
G04 leading zeros omitted , absolute positions ,4 integer and 5 decimal *
%FSLAX45Y45*%
%MOMM*%

%ADD10C,0.1524*%
%ADD11C,0.2540*%
%ADD12C,0.2581*%
%ADD13C,0.4000*%
%ADD14C,0.3000*%
%ADD15C,0.0163*%

%LPD*%
D10*
X4648707Y154178D02*
G01*
X4659121Y148844D01*
X4669535Y138429D01*
X4674616Y128270D01*
X4674616Y107442D01*
X4669535Y97028D01*
X4659121Y86613D01*
X4648707Y81279D01*
X4632960Y76200D01*
X4607051Y76200D01*
X4591557Y81279D01*
X4581144Y86613D01*
X4570730Y97028D01*
X4565650Y107442D01*
X4565650Y128270D01*
X4570730Y138429D01*
X4581144Y148844D01*
X4591557Y154178D01*
X4653787Y188468D02*
G01*
X4659121Y198881D01*
X4674616Y214376D01*
X4565650Y214376D01*
X4659121Y311150D02*
G01*
X4669535Y305815D01*
X4674616Y290321D01*
X4674616Y279907D01*
X4669535Y264160D01*
X4653787Y254000D01*
X4627880Y248665D01*
X4601971Y248665D01*
X4581144Y254000D01*
X4570730Y264160D01*
X4565650Y279907D01*
X4565650Y284987D01*
X4570730Y300736D01*
X4581144Y311150D01*
X4596637Y316229D01*
X4601971Y316229D01*
X4617466Y311150D01*
X4627880Y300736D01*
X4632960Y284987D01*
X4632960Y279907D01*
X4627880Y264160D01*
X4617466Y254000D01*
X4601971Y248665D01*
X3885183Y1066800D02*
G01*
X3963162Y1066800D01*
X3978655Y1061720D01*
X3989069Y1051305D01*
X3994150Y1035557D01*
X3994150Y1025144D01*
X3989069Y1009650D01*
X3978655Y999236D01*
X3963162Y994155D01*
X3885183Y994155D01*
X3885183Y907795D02*
G01*
X3957828Y959865D01*
X3957828Y881887D01*
X3885183Y907795D02*
G01*
X3994150Y907795D01*
X4392421Y1194307D02*
G01*
X4397755Y1204721D01*
X4408169Y1215136D01*
X4418330Y1220215D01*
X4439157Y1220215D01*
X4449571Y1215136D01*
X4459985Y1204721D01*
X4465319Y1194307D01*
X4470400Y1178560D01*
X4470400Y1152652D01*
X4465319Y1137157D01*
X4459985Y1126744D01*
X4449571Y1116329D01*
X4439157Y1111250D01*
X4418330Y1111250D01*
X4408169Y1116329D01*
X4397755Y1126744D01*
X4392421Y1137157D01*
X4358132Y1199387D02*
G01*
X4347717Y1204721D01*
X4332223Y1220215D01*
X4332223Y1111250D01*
X4245864Y1220215D02*
G01*
X4297933Y1147571D01*
X4219955Y1147571D01*
X4245864Y1220215D02*
G01*
X4245864Y1111250D01*
X2970021Y724407D02*
G01*
X2975355Y734821D01*
X2985769Y745236D01*
X2995930Y750315D01*
X3016757Y750315D01*
X3027171Y745236D01*
X3037585Y734821D01*
X3042919Y724407D01*
X3048000Y708660D01*
X3048000Y682752D01*
X3042919Y667257D01*
X3037585Y656844D01*
X3027171Y646429D01*
X3016757Y641350D01*
X2995930Y641350D01*
X2985769Y646429D01*
X2975355Y656844D01*
X2970021Y667257D01*
X2935732Y729487D02*
G01*
X2925317Y734821D01*
X2909823Y750315D01*
X2909823Y641350D01*
X2813050Y750315D02*
G01*
X2865119Y750315D01*
X2870200Y703579D01*
X2865119Y708660D01*
X2849626Y713994D01*
X2833878Y713994D01*
X2818383Y708660D01*
X2807969Y698500D01*
X2802889Y682752D01*
X2802889Y672337D01*
X2807969Y656844D01*
X2818383Y646429D01*
X2833878Y641350D01*
X2849626Y641350D01*
X2865119Y646429D01*
X2870200Y651510D01*
X2875533Y661923D01*
X3479800Y1258315D02*
G01*
X3479800Y1149350D01*
X3479800Y1258315D02*
G01*
X3433064Y1258315D01*
X3417569Y1253236D01*
X3412235Y1247902D01*
X3407155Y1237487D01*
X3407155Y1227073D01*
X3412235Y1216660D01*
X3417569Y1211579D01*
X3433064Y1206500D01*
X3479800Y1206500D01*
X3443478Y1206500D02*
G01*
X3407155Y1149350D01*
X3310382Y1258315D02*
G01*
X3362451Y1258315D01*
X3367532Y1211579D01*
X3362451Y1216660D01*
X3346703Y1221994D01*
X3331210Y1221994D01*
X3315716Y1216660D01*
X3305301Y1206500D01*
X3299967Y1190752D01*
X3299967Y1180337D01*
X3305301Y1164844D01*
X3315716Y1154429D01*
X3331210Y1149350D01*
X3346703Y1149350D01*
X3362451Y1154429D01*
X3367532Y1159510D01*
X3372866Y1169923D01*
X3022600Y267715D02*
G01*
X3022600Y158750D01*
X3022600Y267715D02*
G01*
X2975864Y267715D01*
X2960369Y262636D01*
X2955035Y257302D01*
X2949955Y246887D01*
X2949955Y236473D01*
X2955035Y226060D01*
X2960369Y220979D01*
X2975864Y215900D01*
X3022600Y215900D01*
X2986278Y215900D02*
G01*
X2949955Y158750D01*
X2853182Y252221D02*
G01*
X2858516Y262636D01*
X2874010Y267715D01*
X2884423Y267715D01*
X2899917Y262636D01*
X2910332Y246887D01*
X2915666Y220979D01*
X2915666Y195071D01*
X2910332Y174244D01*
X2899917Y163829D01*
X2884423Y158750D01*
X2879089Y158750D01*
X2863596Y163829D01*
X2853182Y174244D01*
X2848101Y189737D01*
X2848101Y195071D01*
X2853182Y210565D01*
X2863596Y220979D01*
X2879089Y226060D01*
X2884423Y226060D01*
X2899917Y220979D01*
X2910332Y210565D01*
X2915666Y195071D01*
X-979632Y1181562D02*
G01*
X-974435Y1191953D01*
X-964044Y1202344D01*
X-953655Y1207538D01*
X-932873Y1207538D01*
X-922482Y1202344D01*
X-912091Y1191953D01*
X-906894Y1181562D01*
X-901700Y1165974D01*
X-901700Y1139997D01*
X-906894Y1124412D01*
X-912091Y1114021D01*
X-922482Y1103629D01*
X-932873Y1098435D01*
X-953655Y1098435D01*
X-964044Y1103629D01*
X-974435Y1114021D01*
X-979632Y1124412D01*
X-1086657Y1207538D02*
G01*
X-1034704Y1098435D01*
X-1013922Y1207538D02*
G01*
X-1086657Y1207538D01*
X849121Y305307D02*
G01*
X854455Y315721D01*
X864870Y326136D01*
X875029Y331215D01*
X895857Y331215D01*
X906271Y326136D01*
X916686Y315721D01*
X922020Y305307D01*
X927100Y289560D01*
X927100Y263652D01*
X922020Y248157D01*
X916686Y237744D01*
X906271Y227329D01*
X895857Y222250D01*
X875029Y222250D01*
X864870Y227329D01*
X854455Y237744D01*
X849121Y248157D01*
X814831Y310387D02*
G01*
X804418Y315721D01*
X788923Y331215D01*
X788923Y222250D01*
X723392Y331215D02*
G01*
X739139Y326136D01*
X749300Y310387D01*
X754634Y284479D01*
X754634Y268986D01*
X749300Y242823D01*
X739139Y227329D01*
X723392Y222250D01*
X712978Y222250D01*
X697484Y227329D01*
X687070Y242823D01*
X681989Y268986D01*
X681989Y284479D01*
X687070Y310387D01*
X697484Y326136D01*
X712978Y331215D01*
X723392Y331215D01*
X138684Y-977900D02*
G01*
X247650Y-977900D01*
X138684Y-977900D02*
G01*
X138684Y-1024636D01*
X143763Y-1040129D01*
X149097Y-1045463D01*
X159512Y-1050544D01*
X169926Y-1050544D01*
X180339Y-1045463D01*
X185420Y-1040129D01*
X190500Y-1024636D01*
X190500Y-977900D01*
X190500Y-1014221D02*
G01*
X247650Y-1050544D01*
X138684Y-1136904D02*
G01*
X211328Y-1084834D01*
X211328Y-1162812D01*
X138684Y-1136904D02*
G01*
X247650Y-1136904D01*
X265684Y-419100D02*
G01*
X343662Y-419100D01*
X359155Y-424179D01*
X369570Y-434594D01*
X374650Y-450342D01*
X374650Y-460755D01*
X369570Y-476250D01*
X359155Y-486663D01*
X343662Y-491744D01*
X265684Y-491744D01*
X265684Y-536447D02*
G01*
X265684Y-593597D01*
X307339Y-562610D01*
X307339Y-578104D01*
X312420Y-588518D01*
X317500Y-593597D01*
X333247Y-598931D01*
X343662Y-598931D01*
X359155Y-593597D01*
X369570Y-583184D01*
X374650Y-567689D01*
X374650Y-552195D01*
X369570Y-536447D01*
X364489Y-531368D01*
X354076Y-526034D01*
X1039621Y-1459992D02*
G01*
X1044955Y-1449578D01*
X1055370Y-1439163D01*
X1065529Y-1434084D01*
X1086357Y-1434084D01*
X1096771Y-1439163D01*
X1107186Y-1449578D01*
X1112520Y-1459992D01*
X1117600Y-1475739D01*
X1117600Y-1501647D01*
X1112520Y-1517142D01*
X1107186Y-1527555D01*
X1096771Y-1537970D01*
X1086357Y-1543050D01*
X1065529Y-1543050D01*
X1055370Y-1537970D01*
X1044955Y-1527555D01*
X1039621Y-1517142D01*
X979423Y-1434084D02*
G01*
X994918Y-1439163D01*
X1000252Y-1449578D01*
X1000252Y-1459992D01*
X994918Y-1470405D01*
X984504Y-1475739D01*
X963929Y-1480820D01*
X948181Y-1485900D01*
X937768Y-1496313D01*
X932687Y-1506728D01*
X932687Y-1522476D01*
X937768Y-1532889D01*
X943102Y-1537970D01*
X958596Y-1543050D01*
X979423Y-1543050D01*
X994918Y-1537970D01*
X1000252Y-1532889D01*
X1005331Y-1522476D01*
X1005331Y-1506728D01*
X1000252Y-1496313D01*
X989837Y-1485900D01*
X974089Y-1480820D01*
X953515Y-1475739D01*
X943102Y-1470405D01*
X937768Y-1459992D01*
X937768Y-1449578D01*
X943102Y-1439163D01*
X958596Y-1434084D01*
X979423Y-1434084D01*
X1992121Y1143507D02*
G01*
X1997455Y1153921D01*
X2007869Y1164336D01*
X2018030Y1169415D01*
X2038857Y1169415D01*
X2049271Y1164336D01*
X2059685Y1153921D01*
X2065019Y1143507D01*
X2070100Y1127760D01*
X2070100Y1101852D01*
X2065019Y1086357D01*
X2059685Y1075944D01*
X2049271Y1065529D01*
X2038857Y1060450D01*
X2018030Y1060450D01*
X2007869Y1065529D01*
X1997455Y1075944D01*
X1992121Y1086357D01*
X1895601Y1153921D02*
G01*
X1900682Y1164336D01*
X1916430Y1169415D01*
X1926589Y1169415D01*
X1942337Y1164336D01*
X1952751Y1148587D01*
X1957832Y1122679D01*
X1957832Y1096771D01*
X1952751Y1075944D01*
X1942337Y1065529D01*
X1926589Y1060450D01*
X1921510Y1060450D01*
X1906016Y1065529D01*
X1895601Y1075944D01*
X1890267Y1091437D01*
X1890267Y1096771D01*
X1895601Y1112265D01*
X1906016Y1122679D01*
X1921510Y1127760D01*
X1926589Y1127760D01*
X1942337Y1122679D01*
X1952751Y1112265D01*
X1957832Y1096771D01*
X-1067307Y-484378D02*
G01*
X-1077721Y-479044D01*
X-1088136Y-468629D01*
X-1093215Y-458470D01*
X-1093215Y-437642D01*
X-1088136Y-427228D01*
X-1077721Y-416813D01*
X-1067307Y-411479D01*
X-1051560Y-406400D01*
X-1025652Y-406400D01*
X-1010157Y-411479D01*
X-999744Y-416813D01*
X-989329Y-427228D01*
X-984250Y-437642D01*
X-984250Y-458470D01*
X-989329Y-468629D01*
X-999744Y-479044D01*
X-1010157Y-484378D01*
X-1056894Y-586231D02*
G01*
X-1041400Y-580897D01*
X-1030986Y-570484D01*
X-1025652Y-554989D01*
X-1025652Y-549910D01*
X-1030986Y-534162D01*
X-1041400Y-523747D01*
X-1056894Y-518668D01*
X-1061973Y-518668D01*
X-1077721Y-523747D01*
X-1088136Y-534162D01*
X-1093215Y-549910D01*
X-1093215Y-554989D01*
X-1088136Y-570484D01*
X-1077721Y-580897D01*
X-1056894Y-586231D01*
X-1030986Y-586231D01*
X-1004823Y-580897D01*
X-989329Y-570484D01*
X-984250Y-554989D01*
X-984250Y-544576D01*
X-989329Y-529081D01*
X-999744Y-523747D01*
X-1207007Y658621D02*
G01*
X-1217421Y663955D01*
X-1227836Y674370D01*
X-1232915Y684529D01*
X-1232915Y705357D01*
X-1227836Y715771D01*
X-1217421Y726186D01*
X-1207007Y731520D01*
X-1191260Y736600D01*
X-1165352Y736600D01*
X-1149857Y731520D01*
X-1139444Y726186D01*
X-1129029Y715771D01*
X-1123950Y705357D01*
X-1123950Y684529D01*
X-1129029Y674370D01*
X-1139444Y663955D01*
X-1149857Y658621D01*
X-1212087Y624331D02*
G01*
X-1217421Y613918D01*
X-1232915Y598423D01*
X-1123950Y598423D01*
X-1212087Y564134D02*
G01*
X-1217421Y553720D01*
X-1232915Y538226D01*
X-1123950Y538226D01*
X595121Y1041907D02*
G01*
X600455Y1052321D01*
X610870Y1062736D01*
X621029Y1067815D01*
X641857Y1067815D01*
X652271Y1062736D01*
X662686Y1052321D01*
X668020Y1041907D01*
X673100Y1026160D01*
X673100Y1000252D01*
X668020Y984757D01*
X662686Y974344D01*
X652271Y963929D01*
X641857Y958850D01*
X621029Y958850D01*
X610870Y963929D01*
X600455Y974344D01*
X595121Y984757D01*
X560831Y1046987D02*
G01*
X550418Y1052321D01*
X534923Y1067815D01*
X534923Y958850D01*
X495300Y1041907D02*
G01*
X495300Y1046987D01*
X490220Y1057402D01*
X485139Y1062736D01*
X474726Y1067815D01*
X453897Y1067815D01*
X443484Y1062736D01*
X438150Y1057402D01*
X433070Y1046987D01*
X433070Y1036573D01*
X438150Y1026160D01*
X448563Y1010665D01*
X500634Y958850D01*
X427989Y958850D01*
X-648715Y-965200D02*
G01*
X-539750Y-965200D01*
X-648715Y-965200D02*
G01*
X-648715Y-1011936D01*
X-643636Y-1027429D01*
X-638302Y-1032763D01*
X-627887Y-1037844D01*
X-617473Y-1037844D01*
X-607060Y-1032763D01*
X-601979Y-1027429D01*
X-596900Y-1011936D01*
X-596900Y-965200D01*
X-596900Y-1001521D02*
G01*
X-539750Y-1037844D01*
X-648715Y-1082547D02*
G01*
X-648715Y-1139697D01*
X-607060Y-1108710D01*
X-607060Y-1124204D01*
X-601979Y-1134618D01*
X-596900Y-1139697D01*
X-581152Y-1145031D01*
X-570737Y-1145031D01*
X-555244Y-1139697D01*
X-544829Y-1129284D01*
X-539750Y-1113789D01*
X-539750Y-1098295D01*
X-544829Y-1082547D01*
X-549910Y-1077468D01*
X-560323Y-1072134D01*
X-283463Y252984D02*
G01*
X-210820Y361950D01*
X-210820Y252984D02*
G01*
X-283463Y361950D01*
X-171195Y278892D02*
G01*
X-171195Y273812D01*
X-166115Y263397D01*
X-160781Y258063D01*
X-150368Y252984D01*
X-129794Y252984D01*
X-119379Y258063D01*
X-114045Y263397D01*
X-108965Y273812D01*
X-108965Y284226D01*
X-114045Y294639D01*
X-124460Y310134D01*
X-176529Y361950D01*
X-103631Y361950D01*
X4516160Y317319D02*
G01*
X4516160Y168821D01*
X4297639Y168821D02*
G01*
X4297639Y317319D01*
X4312879Y332559D02*
G01*
X4500920Y332559D01*
X4516160Y-164919D02*
G01*
X4516160Y-16421D01*
X4297639Y-16421D02*
G01*
X4297639Y-164919D01*
X4312879Y-180159D02*
G01*
X4500920Y-180159D01*
D11*
X3745105Y760216D02*
G01*
X3745105Y805936D01*
X3672839Y805936D01*
X3672839Y760216D01*
X4204949Y760216D02*
G01*
X4204949Y805936D01*
X4130039Y805936D01*
X4130039Y760216D01*
X3611880Y150616D02*
G01*
X3611880Y760216D01*
X4262119Y760216D01*
X4262119Y150616D01*
D10*
X4478060Y1041219D02*
G01*
X4478060Y892721D01*
X4259539Y892721D02*
G01*
X4259539Y1041219D01*
X4274779Y1056459D02*
G01*
X4462820Y1056459D01*
X4478060Y558980D02*
G01*
X4478060Y707478D01*
X4259539Y707478D02*
G01*
X4259539Y558980D01*
X4274779Y543740D02*
G01*
X4462820Y543740D01*
X3581219Y589239D02*
G01*
X3432721Y589239D01*
X3432721Y807760D02*
G01*
X3581219Y807760D01*
X3596459Y792520D02*
G01*
X3596459Y604479D01*
X3098980Y589239D02*
G01*
X3247478Y589239D01*
X3247478Y807760D02*
G01*
X3098980Y807760D01*
X3083740Y792520D02*
G01*
X3083740Y604479D01*
X3283079Y908090D02*
G01*
X3147087Y908090D01*
X3147087Y1123909D01*
X3283079Y1123909D01*
X3473320Y908090D02*
G01*
X3609312Y908090D01*
X3609312Y1123909D01*
X3473320Y1123909D01*
X3435220Y323809D02*
G01*
X3571212Y323809D01*
X3571212Y107990D01*
X3435220Y107990D01*
X3244979Y323809D02*
G01*
X3108987Y323809D01*
X3108987Y107990D01*
X3244979Y107990D01*
X-857577Y1226860D02*
G01*
X-709079Y1226860D01*
X-709079Y1008339D02*
G01*
X-857577Y1008339D01*
X-872817Y1023579D02*
G01*
X-872817Y1211620D01*
X-375338Y1226860D02*
G01*
X-523836Y1226860D01*
X-523836Y1008339D02*
G01*
X-375338Y1008339D01*
X-360098Y1023579D02*
G01*
X-360098Y1211620D01*
X793061Y-33060D02*
G01*
X644563Y-33060D01*
X644563Y185460D02*
G01*
X793061Y185460D01*
X808301Y170220D02*
G01*
X808301Y-17820D01*
X310822Y-33060D02*
G01*
X459320Y-33060D01*
X459320Y185460D02*
G01*
X310822Y185460D01*
X295582Y170220D02*
G01*
X295582Y-17820D01*
X82509Y-1047620D02*
G01*
X82509Y-1183612D01*
X-133309Y-1183612D01*
X-133309Y-1047620D01*
X82509Y-857379D02*
G01*
X82509Y-721387D01*
X-133309Y-721387D01*
X-133309Y-857379D01*
X-317240Y-642320D02*
G01*
X-12959Y-642320D01*
X-12959Y362920D01*
X-317240Y362920D01*
X-317240Y-642320D01*
X1275661Y-1404660D02*
G01*
X1127163Y-1404660D01*
X1127163Y-1186139D02*
G01*
X1275661Y-1186139D01*
X1290901Y-1201379D02*
G01*
X1290901Y-1389420D01*
X793422Y-1404660D02*
G01*
X941920Y-1404660D01*
X941920Y-1186139D02*
G01*
X793422Y-1186139D01*
X778182Y-1201379D02*
G01*
X778182Y-1389420D01*
X2114222Y1214160D02*
G01*
X2262720Y1214160D01*
X2262720Y995639D02*
G01*
X2114222Y995639D01*
X2098982Y1010879D02*
G01*
X2098982Y1198920D01*
X2596461Y1214160D02*
G01*
X2447963Y1214160D01*
X2447963Y995639D02*
G01*
X2596461Y995639D01*
X2611701Y1010879D02*
G01*
X2611701Y1198920D01*
X-1150660Y-304619D02*
G01*
X-1150660Y-156121D01*
X-932139Y-156121D02*
G01*
X-932139Y-304619D01*
X-947379Y-319859D02*
G01*
X-1135420Y-319859D01*
X-1150660Y177619D02*
G01*
X-1150660Y29121D01*
X-932139Y29121D02*
G01*
X-932139Y177619D01*
X-947379Y192859D02*
G01*
X-1135420Y192859D01*
X-1074460Y495480D02*
G01*
X-1074460Y643978D01*
X-855939Y643978D02*
G01*
X-855939Y495480D01*
X-871179Y480240D02*
G01*
X-1059220Y480240D01*
X-1074460Y977719D02*
G01*
X-1074460Y829221D01*
X-855939Y829221D02*
G01*
X-855939Y977719D01*
X-871179Y992959D02*
G01*
X-1059220Y992959D01*
X-126819Y1125260D02*
G01*
X21678Y1125260D01*
X21678Y906739D02*
G01*
X-126819Y906739D01*
X-142059Y921979D02*
G01*
X-142059Y1110020D01*
X355419Y1125260D02*
G01*
X206921Y1125260D01*
X206921Y906739D02*
G01*
X355419Y906739D01*
X370659Y921979D02*
G01*
X370659Y1110020D01*
X-273090Y-1060320D02*
G01*
X-273090Y-1196312D01*
X-488909Y-1196312D01*
X-488909Y-1060320D01*
X-273090Y-870079D02*
G01*
X-273090Y-734087D01*
X-488909Y-734087D01*
X-488909Y-870079D01*
D12*
X-599399Y815596D02*
G01*
X40596Y815596D01*
X40599Y454403D02*
G01*
X-599401Y454403D01*
X40599Y867153D02*
G01*
X-599401Y867153D01*
X-599401Y402846D02*
G01*
X40599Y402846D01*
D10*
G75*
G01*
X4297639Y317320D02*
G02*
X4312879Y332560I15240J0D01*
G75*
G01*
X4500921Y332560D02*
G02*
X4516161Y317320I0J-15240D01*
G75*
G01*
X4297639Y-164920D02*
G03*
X4312879Y-180160I15240J0D01*
G75*
G01*
X4500921Y-180160D02*
G03*
X4516161Y-164920I0J15240D01*
D13*
G75*
G01*
X3578860Y858515D02*
G02*
X3578860Y858769I-20000J127D01*
D10*
G75*
G01*
X4259539Y1041220D02*
G02*
X4274779Y1056460I15240J0D01*
G75*
G01*
X4462821Y1056460D02*
G02*
X4478061Y1041220I0J-15240D01*
G75*
G01*
X4259539Y558980D02*
G03*
X4274779Y543740I15240J0D01*
G75*
G01*
X4462821Y543740D02*
G03*
X4478061Y558980I0J15240D01*
G75*
G01*
X3581220Y807761D02*
G02*
X3596460Y792521I0J-15240D01*
G75*
G01*
X3596460Y604479D02*
G02*
X3581220Y589239I-15240J0D01*
G75*
G01*
X3098980Y807761D02*
G03*
X3083740Y792521I0J-15240D01*
G75*
G01*
X3083740Y604479D02*
G03*
X3098980Y589239I15240J0D01*
G75*
G01*
X-857578Y1008339D02*
G02*
X-872818Y1023579I0J15240D01*
G75*
G01*
X-872818Y1211621D02*
G02*
X-857578Y1226861I15240J0D01*
G75*
G01*
X-375338Y1008339D02*
G03*
X-360098Y1023579I0J15240D01*
G75*
G01*
X-360098Y1211621D02*
G03*
X-375338Y1226861I-15240J0D01*
G75*
G01*
X793062Y185461D02*
G02*
X808302Y170221I0J-15240D01*
G75*
G01*
X808302Y-17821D02*
G02*
X793062Y-33061I-15240J0D01*
G75*
G01*
X310822Y185461D02*
G03*
X295582Y170221I0J-15240D01*
G75*
G01*
X295582Y-17821D02*
G03*
X310822Y-33061I15240J0D01*
G75*
G01*
X1275662Y-1186139D02*
G02*
X1290902Y-1201379I0J-15240D01*
G75*
G01*
X1290902Y-1389421D02*
G02*
X1275662Y-1404661I-15240J0D01*
G75*
G01*
X793422Y-1186139D02*
G03*
X778182Y-1201379I0J-15240D01*
G75*
G01*
X778182Y-1389421D02*
G03*
X793422Y-1404661I15240J0D01*
G75*
G01*
X2114222Y995639D02*
G02*
X2098982Y1010879I0J15240D01*
G75*
G01*
X2098982Y1198921D02*
G02*
X2114222Y1214161I15240J0D01*
G75*
G01*
X2596462Y995639D02*
G03*
X2611702Y1010879I0J15240D01*
G75*
G01*
X2611702Y1198921D02*
G03*
X2596462Y1214161I-15240J0D01*
G75*
G01*
X-932139Y-304620D02*
G02*
X-947379Y-319860I-15240J0D01*
G75*
G01*
X-1135421Y-319860D02*
G02*
X-1150661Y-304620I0J15240D01*
G75*
G01*
X-932139Y177620D02*
G03*
X-947379Y192860I-15240J0D01*
G75*
G01*
X-1135421Y192860D02*
G03*
X-1150661Y177620I0J-15240D01*
G75*
G01*
X-855939Y495480D02*
G02*
X-871179Y480240I-15240J0D01*
G75*
G01*
X-1059221Y480240D02*
G02*
X-1074461Y495480I0J15240D01*
G75*
G01*
X-855939Y977720D02*
G03*
X-871179Y992960I-15240J0D01*
G75*
G01*
X-1059221Y992960D02*
G03*
X-1074461Y977720I0J-15240D01*
G75*
G01*
X-126820Y906739D02*
G02*
X-142060Y921979I0J15240D01*
G75*
G01*
X-142060Y1110021D02*
G02*
X-126820Y1125261I15240J0D01*
G75*
G01*
X355420Y906739D02*
G03*
X370660Y921979I0J15240D01*
G75*
G01*
X370660Y1110021D02*
G03*
X355420Y1125261I-15240J0D01*
D12*
G75*
G01*
X40599Y402847D02*
G03*
X40640Y867156I-747J232154D01*
G75*
G01*
X-599402Y867153D02*
G03*
X-599440Y402844I749J-232154D01*
G75*
G01*
X40599Y454403D02*
G03*
X40640Y815594I-656J180596D01*
G75*
G01*
X-599399Y815597D02*
G03*
X-599440Y454406I656J-180596D01*
D14*
G75*
G01
X-227000Y-584200D02*
G03X-227000Y-584200I-15011J0D01*
G75*
G01
X-416789Y-660400D02*
G03X-416789Y-660400I-15011J0D01*
M02*
