M48
METRIC,LZ,000.000
;FILE_FORMAT=3:3
;TYPE=PLATED
;Layer: PTH_Through_Via
;EasyEDA v6.5.22, 2023-04-01 07:59:08
;7fe897ac635649ec9317f66c388b8081,f086b915ab1b43d4b1f8ac0bdbc02707,10
;Gerber Generator version 0.2
;Holesize 1 = 0.305 mm
T01C0.305
%
G05
G90
T01
X024442Y002794
X024442Y001397
X030157Y-002159
X027236Y-004318
X009225Y-001910
X017711Y-011557
X004122Y-005207
X029522Y-001270
X013901Y006604
X019108Y006731
X027559Y001905
X012758Y009144
X010980Y009271
X011361Y006858
X012631Y006985
X009329Y008509
X009964Y006985
X008694Y006858
X008313Y008636
X007297Y008509
X007424Y006731
X006154Y006604
X006027Y008636
X003995Y008636
X005138Y006604
X002344Y005588
X-002350Y010410
X-006800Y009144
X024823Y009779
X025712Y002794
X023680Y-000254
X022791Y-001143
X021775Y-002032
X026855Y008001
X025939Y008101
X025966Y009271
X034417Y012065
X027686Y006223
X016822Y-015181
X022156Y-003523
X023299Y-004318
X009710Y-008890
X010599Y-008001
X000832Y-012054
X-002059Y-012785
X-007493Y-007493
X-009779Y002413
X001524Y-007493
X-005715Y-007170
X030353Y008636
X043354Y004202
X041714Y-002355
M30
