G04 Layer: BottomLayer*
G04 EasyEDA v6.5.22, 2023-04-01 07:59:08*
G04 7fe897ac635649ec9317f66c388b8081,f086b915ab1b43d4b1f8ac0bdbc02707,10*
G04 Gerber Generator version 0.2*
G04 Scale: 100 percent, Rotated: No, Reflected: No *
G04 Dimensions in millimeters *
G04 leading zeros omitted , absolute positions ,4 integer and 5 decimal *
%FSLAX45Y45*%
%MOMM*%

%AMMACRO1*21,1,$1,$2,0,0,$3*%
%ADD10C,0.5000*%
%ADD11R,1.7280X1.4850*%
%ADD12MACRO1,1.728X1.485X0.0000*%
%ADD13MACRO1,6.2X5.7X90.0000*%
%ADD14MACRO1,2.3X1.6X90.0000*%
%ADD15MACRO1,1.728X1.485X-90.0000*%
%ADD16MACRO1,1.701X1.2075X90.0000*%
%ADD17MACRO1,1.701X1.2075X-90.0000*%
%ADD18MACRO1,1.728X1.485X90.0000*%
%ADD19R,1.7010X1.2075*%
%ADD20MACRO1,1.701X1.2075X0.0000*%
%ADD21O,1.9709892X0.6020054*%
%ADD22C,1.8000*%
%ADD23R,1.5748X1.7000*%
%ADD24C,1.7000*%
%ADD25C,1.5240*%
%ADD26C,1.5748*%
%ADD27R,1.5748X1.5748*%
%ADD28R,1.5000X1.5000*%
%ADD29C,1.5000*%
%ADD30R,1.8000X1.7000*%
%ADD31C,0.6096*%
%ADD32C,0.0100*%

%LPD*%
D10*
X1910842Y673100D02*
G01*
X1910842Y882142D01*
X2133600Y1104900D01*
X2221483Y1104900D01*
X3526028Y1016000D02*
G01*
X3487928Y1016000D01*
X3487928Y215900D01*
X-438657Y177800D02*
G01*
X-596900Y177800D01*
X-584200Y393700D01*
X-406400Y482600D01*
X-444500Y596900D01*
X-523494Y635000D01*
X152400Y-721474D02*
G01*
X353174Y-520700D01*
X412242Y-520700D01*
X-438657Y-584200D02*
G01*
X-571500Y-717042D01*
X-571500Y-723900D01*
X108457Y-584200D02*
G01*
X152400Y-628142D01*
X152400Y-749300D01*
X-977900Y241300D02*
G01*
X-1041400Y177800D01*
X-1041400Y95757D01*
X-762000Y-469900D02*
G01*
X-1009142Y-222757D01*
X-1041400Y-222757D01*
X-762000Y292100D02*
G01*
X-958342Y95757D01*
X-1041400Y95757D01*
X-438657Y-76200D02*
G01*
X-622300Y-76200D01*
X-762000Y-215900D01*
X-762000Y38100D02*
G01*
X-749300Y50800D01*
X-438657Y50800D01*
X-438657Y-457200D02*
G01*
X-266700Y-457200D01*
X-266700Y-703021D01*
X-381000Y-817321D01*
X-381000Y-1113078D02*
G01*
X-215559Y-1278519D01*
X-205877Y-1278519D01*
X-25400Y-804621D02*
G01*
X-76200Y-753821D01*
X-76200Y-342900D01*
X-88900Y-330200D01*
X-438657Y-330200D01*
X83164Y-1205377D02*
G01*
X-21833Y-1100378D01*
X-25400Y-1100378D01*
X-965200Y895857D02*
G01*
X-775715Y1085342D01*
X-775715Y1117600D01*
X-523389Y635000D02*
G01*
X-581047Y577342D01*
X-965200Y577342D01*
X-35407Y635000D02*
G01*
X-365607Y304800D01*
X-438657Y304800D01*
X108457Y-203200D02*
G01*
X241300Y-203200D01*
X392684Y-51815D01*
X392684Y76200D01*
X-44957Y1016000D02*
G01*
X-35407Y1006449D01*
X-35407Y635000D01*
X234442Y558800D02*
G01*
X273557Y597915D01*
X273557Y1016000D01*
X711200Y76200D02*
G01*
X922489Y-135089D01*
X922489Y-191000D01*
X2825242Y-127000D02*
G01*
X2876042Y-292100D01*
X3462273Y-935736D01*
X2444242Y279400D02*
G01*
X2444242Y254000D01*
X2850642Y-152400D01*
X3462248Y-1185798D02*
G01*
X2583942Y-114300D01*
X2444242Y0D01*
X2444242Y139700D01*
X2215642Y-352300D02*
G01*
X2174242Y-393700D01*
X1339342Y-393700D01*
X1059942Y-673100D01*
X1059942Y-800100D01*
X2329942Y-431800D02*
G01*
X2266442Y-495300D01*
X1504442Y-495300D01*
X1110742Y-889000D01*
X971042Y-889000D01*
X1771142Y-1155700D02*
G01*
X1014984Y-1155700D01*
X875284Y-1295400D01*
X922489Y-191000D02*
G01*
X945642Y-214152D01*
X945642Y-279400D01*
X2723642Y-431800D02*
G01*
X2571242Y-279400D01*
X945642Y-279400D01*
X1771142Y-1155700D02*
G01*
X1771142Y-965200D01*
X602742Y-965200D01*
X412242Y-774700D01*
X412242Y-520700D01*
X1193800Y-1295400D02*
G01*
X1219200Y-1320800D01*
X1593342Y-1320800D01*
X1682170Y-1409628D01*
X1682170Y-1518086D01*
X996442Y-1714500D02*
G01*
X875284Y-1593342D01*
X875284Y-1295400D01*
X1250442Y-1714500D02*
G01*
X1193800Y-1657857D01*
X1193800Y-1295400D01*
X3441700Y1206500D02*
G01*
X4019042Y1206500D01*
X4031742Y1193800D01*
X4031742Y1358900D01*
X2177542Y-203200D02*
G01*
X2190242Y508000D01*
X2304542Y635000D01*
X2596642Y927100D01*
X2279142Y-114300D02*
G01*
X2279142Y495300D01*
X2593914Y810072D01*
X2368042Y-25400D02*
G01*
X2368042Y482600D01*
X2685542Y800100D01*
X2444242Y279400D02*
G01*
X2444242Y297942D01*
X2768600Y622300D01*
X2761742Y629157D01*
X2761742Y1358900D01*
X2221483Y1104900D02*
G01*
X2221483Y1110742D01*
X2253742Y1143000D01*
X2253742Y1358900D01*
X2540000Y1104900D02*
G01*
X2507742Y1137157D01*
X2507742Y1358900D01*
X2482342Y977900D02*
G01*
X2540000Y1035557D01*
X2540000Y1104900D01*
X-540257Y1346200D02*
G01*
X-469900Y1275842D01*
X-469900Y1079500D01*
X-794257Y1346200D02*
G01*
X-788415Y1340357D01*
X-788415Y1079500D01*
X-788415Y1079500D02*
G01*
X-679957Y971042D01*
X-679957Y914400D01*
X-235021Y1040963D02*
G01*
X-273557Y1079500D01*
X-469900Y1079500D01*
X1390142Y660400D02*
G01*
X1288542Y558800D01*
X234442Y558800D01*
X399542Y863600D02*
G01*
X513842Y749300D01*
X513842Y660400D01*
X602742Y863600D02*
G01*
X615442Y850900D01*
X615442Y660400D01*
X729742Y850900D02*
G01*
X742442Y838200D01*
X742442Y673100D01*
X869442Y685800D02*
G01*
X831342Y723900D01*
X831342Y863600D01*
X996442Y698500D02*
G01*
X932942Y762000D01*
X932942Y850900D01*
X1098042Y927100D02*
G01*
X1136142Y889000D01*
X1136142Y685800D01*
X1275842Y914400D02*
G01*
X1263142Y901700D01*
X1263142Y698500D01*
X2952242Y-127000D02*
G01*
X2755900Y69342D01*
X2755900Y190500D01*
X1390142Y660400D02*
G01*
X1402842Y673100D01*
X1910842Y673100D01*
X3462248Y-685800D02*
G01*
X3015742Y-239293D01*
X3015742Y-215900D01*
X4166006Y956690D02*
G01*
X4168673Y959357D01*
X4368800Y959357D01*
X4368800Y959357D02*
G01*
X4540757Y959357D01*
X4660900Y1079500D01*
X3192226Y215900D02*
G01*
X3180842Y227284D01*
X3180842Y698500D01*
X2755900Y190500D02*
G01*
X3180842Y615442D01*
X3180842Y698500D01*
X4368800Y640842D02*
G01*
X4476242Y640842D01*
X4660900Y825500D01*
X4660900Y825500D01*
X3707991Y956741D02*
G01*
X3648732Y1016000D01*
X3526078Y1016000D01*
X3487973Y215900D02*
G01*
X3487973Y698500D01*
X3499357Y698500D01*
X2571242Y279400D02*
G01*
X2844800Y552957D01*
X2844800Y1187957D01*
X3015742Y1358900D01*
X3462273Y-185673D02*
G01*
X3340100Y-63754D01*
X3340100Y1270000D01*
X3269742Y1358900D01*
X4335424Y420217D02*
G01*
X4368800Y453593D01*
X4368800Y640842D01*
X4406900Y235457D02*
G01*
X4406900Y348742D01*
X4335424Y420217D01*
X3937000Y313245D02*
G01*
X4333303Y-83057D01*
X4406900Y-83057D01*
X4406900Y-83057D02*
G01*
X4323859Y-83057D01*
X4171442Y-235475D01*
X3035300Y863600D02*
G01*
X3187700Y1016000D01*
X3230321Y1016000D01*
D11*
G01*
X4406900Y235457D03*
D12*
G01*
X4406900Y-83050D03*
D13*
G01*
X3937000Y313245D03*
D14*
G01*
X3708001Y956744D03*
G01*
X4165998Y956693D03*
D11*
G01*
X4368800Y959357D03*
D12*
G01*
X4368800Y640849D03*
D15*
G01*
X3499350Y698500D03*
G01*
X3180849Y698500D03*
D16*
G01*
X3230323Y1016000D03*
G01*
X3526076Y1016000D03*
D17*
G01*
X3487976Y215900D03*
G01*
X3192223Y215900D03*
D18*
G01*
X-775708Y1117600D03*
G01*
X-457207Y1117600D03*
D15*
G01*
X711192Y76200D03*
G01*
X392691Y76200D03*
D19*
G01*
X-25400Y-1100378D03*
D20*
G01*
X-25400Y-804623D03*
D21*
G01*
X-438657Y-584200D03*
G01*
X-438657Y-457200D03*
G01*
X-438657Y-330200D03*
G01*
X-438657Y-203200D03*
G01*
X-438657Y-76200D03*
G01*
X-438657Y50800D03*
G01*
X-438657Y177800D03*
G01*
X-438657Y304800D03*
G01*
X108457Y-584200D03*
G01*
X108457Y-457200D03*
G01*
X108457Y-330200D03*
G01*
X108457Y-203200D03*
G01*
X108457Y-76200D03*
G01*
X108457Y50800D03*
G01*
X108457Y177800D03*
G01*
X108457Y304800D03*
D15*
G01*
X1193792Y-1295400D03*
G01*
X875291Y-1295400D03*
D18*
G01*
X2196091Y1104900D03*
G01*
X2514592Y1104900D03*
D11*
G01*
X-1041400Y-222757D03*
D12*
G01*
X-1041400Y95750D03*
D11*
G01*
X-965200Y577342D03*
D12*
G01*
X-965200Y895850D03*
D18*
G01*
X-44950Y1016000D03*
G01*
X273550Y1016000D03*
D19*
G01*
X-381000Y-1113078D03*
D20*
G01*
X-381000Y-817323D03*
D22*
G01*
X-523392Y635000D03*
G01*
X-35407Y635000D03*
D23*
G01*
X4660900Y825500D03*
D24*
G01*
X4660900Y1079500D03*
D25*
G01*
X-762000Y292100D03*
G01*
X-762000Y38100D03*
G01*
X-762000Y-215900D03*
G01*
X-762000Y-469900D03*
D26*
G01*
X1250442Y-1714500D03*
G01*
X996442Y-1714500D03*
G01*
X742442Y-1714500D03*
G01*
X488442Y-1714500D03*
G01*
X234442Y-1714500D03*
G01*
X-19557Y-1714500D03*
G01*
X-273557Y-1714500D03*
G01*
X-527557Y-1714500D03*
D27*
G01*
X-781557Y-1714500D03*
G01*
X4031742Y1358900D03*
D26*
G01*
X3777742Y1358900D03*
G01*
X3523742Y1358900D03*
G01*
X3269742Y1358900D03*
G01*
X3015742Y1358900D03*
G01*
X2761742Y1358900D03*
G01*
X2507742Y1358900D03*
G01*
X2253742Y1358900D03*
D28*
G01*
X2164842Y-784707D03*
D29*
G01*
X2164842Y-1272692D03*
D24*
G01*
X3712235Y-185801D03*
G01*
X3462248Y-435813D03*
G01*
X3712235Y-435813D03*
G01*
X3462248Y-685800D03*
G01*
X3712235Y-685800D03*
G01*
X3462248Y-935812D03*
G01*
X3712235Y-935812D03*
G01*
X3462248Y-1185798D03*
G01*
X3712235Y-1185798D03*
D30*
G01*
X3462248Y-185801D03*
D26*
G01*
X-794257Y1346200D03*
G01*
X-540257Y1346200D03*
G01*
X-286257Y1346200D03*
G01*
X-32257Y1346200D03*
G01*
X221742Y1346200D03*
G01*
X475742Y1346200D03*
G01*
X729742Y1346200D03*
G01*
X983742Y1346200D03*
D27*
G01*
X1237742Y1346200D03*
D31*
G01*
X2444242Y279400D03*
G01*
X2444242Y139700D03*
G01*
X3015742Y-215900D03*
G01*
X2723642Y-431800D03*
G01*
X922502Y-191007D03*
G01*
X1771142Y-1155700D03*
G01*
X412242Y-520700D03*
G01*
X2952242Y-127000D03*
G01*
X1390142Y660400D03*
G01*
X1910842Y673100D03*
G01*
X2755900Y190500D03*
G01*
X1275842Y914400D03*
G01*
X1098042Y927100D03*
G01*
X1136142Y685800D03*
G01*
X1263142Y698500D03*
G01*
X932942Y850900D03*
G01*
X996442Y698500D03*
G01*
X869442Y685800D03*
G01*
X831342Y863600D03*
G01*
X729742Y850900D03*
G01*
X742442Y673100D03*
G01*
X615442Y660400D03*
G01*
X602742Y863600D03*
G01*
X399542Y863600D03*
G01*
X513842Y660400D03*
G01*
X234442Y558800D03*
G01*
X-235026Y1040968D03*
G01*
X-679957Y914400D03*
G01*
X2482342Y977900D03*
G01*
X2571242Y279400D03*
G01*
X2368042Y-25400D03*
G01*
X2279142Y-114300D03*
G01*
X2177542Y-203200D03*
G01*
X2685542Y800100D03*
G01*
X2593924Y810082D03*
G01*
X2596642Y927100D03*
G01*
X3441700Y1206500D03*
G01*
X2768600Y622300D03*
G01*
X1682165Y-1518081D03*
G01*
X2215642Y-352297D03*
G01*
X2329942Y-431800D03*
G01*
X971042Y-889000D03*
G01*
X1059942Y-800100D03*
G01*
X83159Y-1205382D03*
G01*
X-205867Y-1278534D03*
G01*
X-749300Y-749300D03*
G01*
X-977900Y241300D03*
G01*
X152400Y-749300D03*
G01*
X-571500Y-717042D03*
G01*
X3035300Y863600D03*
G01*
X4335424Y420217D03*
G01*
X4171442Y-235483D03*
M02*
