G04 Layer: TopLayer*
G04 EasyEDA v6.5.22, 2023-04-01 07:59:08*
G04 7fe897ac635649ec9317f66c388b8081,f086b915ab1b43d4b1f8ac0bdbc02707,10*
G04 Gerber Generator version 0.2*
G04 Scale: 100 percent, Rotated: No, Reflected: No *
G04 Dimensions in millimeters *
G04 leading zeros omitted , absolute positions ,4 integer and 5 decimal *
%FSLAX45Y45*%
%MOMM*%

%AMMACRO1*21,1,$1,$2,0,0,$3*%
%ADD10C,0.5000*%
%ADD11MACRO1,1.728X1.485X90.0000*%
%ADD12R,1.6350X1.6000*%
%ADD13MACRO1,1.701X1.2075X90.0000*%
%ADD14MACRO1,1.728X1.485X0.0000*%
%ADD15R,1.7280X1.4850*%
%ADD16O,1.6500094X0.4500118*%
%ADD17O,0.4500118X1.6500094*%
%ADD18MACRO1,1.728X1.485X-90.0000*%
%ADD19MACRO1,1.701X1.2075X-90.0000*%
%ADD20C,1.8000*%
%ADD21R,1.5748X1.7000*%
%ADD22C,1.7000*%
%ADD23C,1.5240*%
%ADD24C,1.5748*%
%ADD25R,1.5748X1.5748*%
%ADD26R,1.5000X1.5000*%
%ADD27C,1.5000*%
%ADD28R,1.8000X1.7000*%
%ADD29C,0.6096*%
%ADD30C,0.0179*%

%LPD*%
D10*
X83057Y-1205484D02*
G01*
X-38100Y-1282700D01*
X-495300Y-1663700D01*
X-527557Y-1714500D01*
X2755900Y190500D02*
G01*
X2603500Y393700D01*
X1917700Y444500D01*
X1898142Y685800D01*
X4171442Y-730757D02*
G01*
X4184142Y-743457D01*
X4184142Y-1092200D01*
X3897376Y-1378960D01*
X2741676Y-1378960D01*
X234442Y558800D02*
G01*
X234442Y495300D01*
X-165100Y495300D01*
X-415544Y745744D01*
X-679957Y914400D01*
X-762000Y-469900D02*
G01*
X-647700Y-584200D01*
X-152400Y-584200D01*
X-82042Y-654557D01*
X-82042Y-889000D01*
X-749300Y-749300D02*
G01*
X-609600Y-889000D01*
X-400557Y-889000D01*
X-571500Y-717042D02*
G01*
X-400557Y-889000D01*
X152400Y-749300D02*
G01*
X12700Y-889000D01*
X-82042Y-889000D01*
X-977900Y241300D02*
G01*
X-939800Y279400D01*
X-939800Y838200D01*
X-863600Y914400D01*
X-679957Y914400D01*
X-749300Y-749300D02*
G01*
X-977900Y-520700D01*
X-977900Y241300D01*
X-977900Y241300D02*
G01*
X-977900Y241300D01*
X-952500Y266700D01*
X3712235Y-1185798D02*
G01*
X3712235Y-846914D01*
X3688842Y-838200D01*
X1059942Y-800100D02*
G01*
X1072642Y-812800D01*
X1072642Y-1041400D01*
X742442Y-1371600D01*
X742442Y-1714500D01*
X971042Y-889000D02*
G01*
X488442Y-1371600D01*
X488442Y-1714500D01*
X1155192Y-272392D02*
G01*
X876449Y-272392D01*
X780542Y-368300D01*
X691642Y-406400D01*
X272542Y-800100D01*
X-205879Y-1278521D01*
X-205994Y-1278636D02*
G01*
X-345694Y-1278636D01*
X-781557Y-1714500D01*
X1393342Y-589279D02*
G01*
X1393342Y-669899D01*
X1339342Y-723900D01*
X1021842Y-723900D01*
X234442Y-1511300D01*
X234442Y-1714500D01*
X1313334Y-589279D02*
G01*
X1295554Y-571500D01*
X1021842Y-571500D01*
X-19557Y-1612900D01*
X-19557Y-1714500D01*
X2031492Y-352297D02*
G01*
X2215642Y-352297D01*
X2215642Y-342900D01*
X2031492Y-432307D02*
G01*
X2329942Y-431800D01*
X1155192Y-352300D02*
G01*
X932942Y-355600D01*
X885332Y-403209D01*
X885332Y-403209D02*
G01*
X83162Y-1205379D01*
X1155192Y-432307D02*
G01*
X1008634Y-432307D01*
X-273557Y-1714500D01*
X-286257Y1346200D02*
G01*
X196342Y863600D01*
X399542Y863600D01*
X1497584Y-1333500D02*
G01*
X1682170Y-1518086D01*
X1682170Y-1518086D02*
G01*
X1707642Y-1543557D01*
X1720342Y-1536700D01*
X1783842Y-1536700D01*
X2583942Y-1536700D01*
X2882900Y-1237742D01*
X2882900Y-825500D01*
X2031492Y-112395D02*
G01*
X2277237Y-112395D01*
X2279142Y-114300D01*
X2291842Y-101600D01*
X3121868Y660400D02*
G01*
X3083768Y622300D01*
X2768600Y622300D01*
X4171442Y-235475D02*
G01*
X4171442Y-113284D01*
X4082542Y-24384D01*
X4082542Y330200D01*
X4044442Y368300D01*
X3409442Y368300D01*
X3409442Y393700D01*
X4171442Y-412242D02*
G01*
X4171442Y-235475D01*
X2882900Y-825500D02*
G01*
X2647442Y-590042D01*
X2647442Y-152400D01*
X2698242Y-127000D01*
X2952242Y-127000D01*
X2507742Y12700D02*
G01*
X3462248Y12700D01*
X3462248Y-185801D01*
X2031492Y47599D02*
G01*
X2472842Y47599D01*
X2507742Y12700D01*
X3417615Y660400D02*
G01*
X3443015Y635000D01*
X3696360Y635000D01*
X3015742Y-215900D02*
G01*
X2799842Y-431800D01*
X2723642Y-431800D01*
X2596642Y927100D02*
G01*
X2876042Y1206500D01*
X3441700Y1206500D01*
X2031492Y-192278D02*
G01*
X2177542Y-192278D01*
X2177542Y-203200D01*
X3523742Y1358900D02*
G01*
X3523742Y1079500D01*
X2685542Y800100D02*
G01*
X2964942Y1079500D01*
X3523742Y1079500D01*
X2031492Y-32512D02*
G01*
X2360930Y-32512D01*
X2368042Y-25400D01*
X2355342Y-38100D01*
X2444242Y139700D02*
G01*
X2444242Y152400D01*
X2571242Y279400D01*
X1580642Y1010157D02*
G01*
X1612900Y977900D01*
X2482342Y977900D01*
X3276264Y381000D02*
G01*
X3498590Y381000D01*
X1633220Y284479D02*
G01*
X1644142Y295147D01*
X1644142Y520700D01*
X1656842Y533400D01*
X1733042Y533400D01*
X1783842Y584200D01*
X1783842Y863600D01*
X1618742Y863600D01*
X1580642Y863600D01*
X1580642Y1010157D01*
X-235021Y1040963D02*
G01*
X31242Y774700D01*
X416811Y774700D01*
X-32257Y1346200D02*
G01*
X412242Y977900D01*
X602742Y863600D01*
X922489Y-191000D02*
G01*
X513842Y217647D01*
X513842Y660400D01*
X221742Y1346200D02*
G01*
X717042Y850900D01*
X729742Y850900D01*
X1155192Y-112521D02*
G01*
X969263Y-112521D01*
X615442Y241300D01*
X615442Y660400D01*
X1155192Y47599D02*
G01*
X1063142Y47599D01*
X971042Y228600D01*
X894842Y342900D01*
X869442Y685800D01*
X1155192Y-32410D02*
G01*
X1027531Y-32410D01*
X1009142Y-25400D01*
X767842Y292100D01*
X742442Y673100D01*
X475742Y1346200D02*
G01*
X831342Y990600D01*
X831342Y863600D01*
X1155192Y127507D02*
G01*
X1047242Y381000D01*
X996442Y431800D01*
X996442Y698500D01*
X1580642Y1010157D02*
G01*
X1345184Y774700D01*
X416813Y774700D01*
X416813Y-177800D01*
X729742Y1346200D02*
G01*
X932942Y1143000D01*
X932942Y850900D01*
X1237742Y1346200D02*
G01*
X1275842Y1308100D01*
X1275842Y914400D01*
X983742Y1346200D02*
G01*
X1098042Y1231900D01*
X1098042Y927100D01*
X1313332Y284479D02*
G01*
X1136142Y461670D01*
X1136142Y685800D01*
X1393444Y284479D02*
G01*
X1393444Y517397D01*
X1263142Y647700D01*
X1263142Y698500D01*
X1580642Y691642D02*
G01*
X1549400Y660400D01*
X1390142Y660400D01*
X416763Y-177800D02*
G01*
X412242Y-182321D01*
X412242Y-520700D01*
X1778000Y-927100D02*
G01*
X1771142Y-933957D01*
X1771142Y-1155700D01*
X2031492Y127607D02*
G01*
X2043584Y139700D01*
X2444242Y139700D01*
X1873349Y284479D02*
G01*
X1878429Y279400D01*
X2444242Y279400D01*
X2730500Y-1390142D02*
G01*
X2730500Y-1323621D01*
X3712232Y-185798D02*
G01*
X3783731Y-114300D01*
X3873500Y-114300D01*
X4171442Y-412242D01*
X4171442Y-730757D02*
G01*
X3966387Y-935812D01*
X3712232Y-935812D01*
X1155192Y-192278D02*
G01*
X922489Y-191000D01*
X922489Y-191000D02*
G01*
X831342Y-190500D01*
X818642Y-177800D01*
X712470Y-177800D01*
X2564383Y-825500D02*
G01*
X2523591Y-784707D01*
X2164842Y-784707D01*
X1459484Y-927100D02*
G01*
X1453642Y-932942D01*
X1453642Y-1244600D01*
X1497584Y-1288542D01*
X1497584Y-1333500D01*
X2164842Y-1272692D02*
G01*
X2104034Y-1333500D01*
X1816100Y-1333500D01*
X1793341Y-589279D02*
G01*
X1793341Y-669899D01*
X2164842Y-1041400D01*
X2164842Y-1272692D01*
X1873351Y-589279D02*
G01*
X2068779Y-784707D01*
X2164842Y-784707D01*
X1553337Y284479D02*
G01*
X1553337Y664337D01*
X1580642Y691642D01*
X1793239Y284479D02*
G01*
X1793239Y152400D01*
X1633220Y154178D01*
X1633220Y284479D01*
X1459484Y-927100D02*
G01*
X1473352Y-913231D01*
X1473352Y-589279D01*
X1633346Y-589279D02*
G01*
X1633346Y-457200D01*
X1466342Y-457200D01*
X1473352Y-464210D01*
X1473352Y-589279D01*
X1691010Y-715131D02*
G01*
X1778000Y-802121D01*
X1778000Y-927100D01*
X1593342Y-749300D02*
G01*
X1656842Y-749300D01*
X1713229Y-692912D01*
X1713229Y-589279D01*
X1553337Y-589279D02*
G01*
X1553337Y-709295D01*
X1593342Y-749300D01*
X4335424Y420217D02*
G01*
X4120642Y635000D01*
X3999839Y635000D01*
X4171442Y-730757D02*
G01*
X4356100Y-546100D01*
X4356100Y399542D01*
X4335424Y420217D01*
X2593848Y810005D02*
G01*
X2593848Y790194D01*
X2710942Y673100D01*
X2990342Y952500D01*
X3587242Y952500D01*
X3777742Y1143000D01*
X3777742Y1358900D01*
X3035300Y863600D02*
G01*
X3162300Y863600D01*
X3238500Y787400D01*
X3238500Y381000D01*
X2901442Y381000D01*
X2482342Y800100D01*
X2482342Y977900D01*
D11*
G01*
X-82049Y-889000D03*
G01*
X-400550Y-889000D03*
D12*
G01*
X3999839Y635000D03*
G01*
X3696360Y635000D03*
D13*
G01*
X3417618Y660400D03*
G01*
X3121865Y660400D03*
D11*
G01*
X1777992Y-927100D03*
G01*
X1459491Y-927100D03*
D14*
G01*
X1580642Y691649D03*
D15*
G01*
X1580642Y1010157D03*
D16*
G01*
X1155192Y-432409D03*
G01*
X1155192Y-352399D03*
G01*
X1155192Y-272389D03*
G01*
X1155192Y-192404D03*
G01*
X1155192Y-112395D03*
G01*
X1155192Y-32410D03*
G01*
X1155192Y47599D03*
G01*
X1155192Y127609D03*
D17*
G01*
X1313332Y284479D03*
G01*
X1393342Y284479D03*
G01*
X1473352Y284479D03*
G01*
X1553337Y284479D03*
G01*
X1633346Y284479D03*
G01*
X1713331Y284479D03*
G01*
X1793341Y284479D03*
G01*
X1873351Y284479D03*
D16*
G01*
X2031492Y127609D03*
G01*
X2031492Y47599D03*
G01*
X2031492Y-32410D03*
G01*
X2031492Y-112395D03*
G01*
X2031492Y-192404D03*
G01*
X2031492Y-272389D03*
G01*
X2031492Y-352399D03*
G01*
X2031492Y-432409D03*
D17*
G01*
X1873351Y-589279D03*
G01*
X1793341Y-589279D03*
G01*
X1713331Y-589279D03*
G01*
X1633346Y-589279D03*
G01*
X1553337Y-589279D03*
G01*
X1473352Y-589279D03*
G01*
X1393342Y-589279D03*
G01*
X1313332Y-589279D03*
D18*
G01*
X2564391Y-825500D03*
G01*
X2882892Y-825500D03*
D11*
G01*
X1816092Y-1333500D03*
G01*
X1497591Y-1333500D03*
D14*
G01*
X4171442Y-412249D03*
D15*
G01*
X4171442Y-730757D03*
D19*
G01*
X416765Y-177800D03*
G01*
X712518Y-177800D03*
D20*
G01*
X-523392Y635000D03*
G01*
X-35407Y635000D03*
D21*
G01*
X4660900Y825500D03*
D22*
G01*
X4660900Y1079500D03*
D23*
G01*
X-762000Y292100D03*
G01*
X-762000Y38100D03*
G01*
X-762000Y-215900D03*
G01*
X-762000Y-469900D03*
D24*
G01*
X1250442Y-1714500D03*
G01*
X996442Y-1714500D03*
G01*
X742442Y-1714500D03*
G01*
X488442Y-1714500D03*
G01*
X234442Y-1714500D03*
G01*
X-19557Y-1714500D03*
G01*
X-273557Y-1714500D03*
G01*
X-527557Y-1714500D03*
D25*
G01*
X-781557Y-1714500D03*
G01*
X4031742Y1358900D03*
D24*
G01*
X3777742Y1358900D03*
G01*
X3523742Y1358900D03*
G01*
X3269742Y1358900D03*
G01*
X3015742Y1358900D03*
G01*
X2761742Y1358900D03*
G01*
X2507742Y1358900D03*
G01*
X2253742Y1358900D03*
D26*
G01*
X2164842Y-784707D03*
D27*
G01*
X2164842Y-1272692D03*
D22*
G01*
X3712235Y-185801D03*
G01*
X3462248Y-435813D03*
G01*
X3712235Y-435813D03*
G01*
X3462248Y-685800D03*
G01*
X3712235Y-685800D03*
G01*
X3462248Y-935812D03*
G01*
X3712235Y-935812D03*
G01*
X3462248Y-1185798D03*
G01*
X3712235Y-1185798D03*
D28*
G01*
X3462248Y-185801D03*
D24*
G01*
X-794257Y1346200D03*
G01*
X-540257Y1346200D03*
G01*
X-286257Y1346200D03*
G01*
X-32257Y1346200D03*
G01*
X221742Y1346200D03*
G01*
X475742Y1346200D03*
G01*
X729742Y1346200D03*
G01*
X983742Y1346200D03*
D25*
G01*
X1237742Y1346200D03*
D29*
G01*
X2444242Y279400D03*
G01*
X2444242Y139700D03*
G01*
X3015742Y-215900D03*
G01*
X2723642Y-431800D03*
G01*
X922502Y-191007D03*
G01*
X1771142Y-1155700D03*
G01*
X412242Y-520700D03*
G01*
X2952242Y-127000D03*
G01*
X1390142Y660400D03*
G01*
X1910842Y673100D03*
G01*
X2755900Y190500D03*
G01*
X1275842Y914400D03*
G01*
X1098042Y927100D03*
G01*
X1136142Y685800D03*
G01*
X1263142Y698500D03*
G01*
X932942Y850900D03*
G01*
X996442Y698500D03*
G01*
X869442Y685800D03*
G01*
X831342Y863600D03*
G01*
X729742Y850900D03*
G01*
X742442Y673100D03*
G01*
X615442Y660400D03*
G01*
X602742Y863600D03*
G01*
X399542Y863600D03*
G01*
X513842Y660400D03*
G01*
X234442Y558800D03*
G01*
X-235026Y1040968D03*
G01*
X-679957Y914400D03*
G01*
X2482342Y977900D03*
G01*
X2571242Y279400D03*
G01*
X2368042Y-25400D03*
G01*
X2279142Y-114300D03*
G01*
X2177542Y-203200D03*
G01*
X2685542Y800100D03*
G01*
X2593924Y810082D03*
G01*
X2596642Y927100D03*
G01*
X3441700Y1206500D03*
G01*
X2768600Y622300D03*
G01*
X1682165Y-1518081D03*
G01*
X2215642Y-352297D03*
G01*
X2329942Y-431800D03*
G01*
X971042Y-889000D03*
G01*
X1059942Y-800100D03*
G01*
X83159Y-1205382D03*
G01*
X-205867Y-1278534D03*
G01*
X-749300Y-749300D03*
G01*
X-977900Y241300D03*
G01*
X152400Y-749300D03*
G01*
X-571500Y-717042D03*
G01*
X3035300Y863600D03*
G01*
X4335424Y420217D03*
G01*
X4171442Y-235483D03*
M02*
